<svg width="18" height="19" viewBox="0 0 18 19" fill="none" xmlns="http://www.w3.org/2000/svg">
<path d="M2.71231 0.754158C2.04551 0.86631 1.4424 1.18033 0.955408 1.66632C0.595786 2.02895 0.442197 2.25325 0.243656 2.72055C-0.0148225 3.31495 0.000161746 2.93364 0.000161746 9.70011C0.000161746 16.3208 -0.00733038 16.0591 0.206195 16.6199C0.352292 17.0124 0.577056 17.3638 0.895471 17.6965C1.34874 18.1713 1.83573 18.4554 2.48006 18.6274L2.79098 18.7096L8.76595 18.7246C13.0177 18.7321 14.8496 18.7246 15.1118 18.6947C15.891 18.6049 16.5203 18.3096 17.0597 17.775C17.4606 17.3788 17.6966 16.9937 17.8914 16.4143L18 16.0965V9.74124V3.38598L17.9138 3.09065C17.5992 2.00278 16.7825 1.18407 15.6774 0.836403L15.3403 0.731728L9.12183 0.727989C5.70167 0.724251 2.8172 0.735466 2.71231 0.754158ZM6.70187 7.49447C7.96429 8.7057 8.98697 9.71133 8.98322 9.72628C8.97573 9.74124 7.93807 10.7469 6.67565 11.9618L4.37557 14.1712L3.77994 13.5992C3.45403 13.289 3.18432 13.0123 3.18806 12.9936C3.18806 12.9712 3.94851 12.231 4.87379 11.3487C5.79532 10.4627 6.55203 9.73002 6.55577 9.71881C6.55577 9.70385 5.79907 8.96365 4.87005 8.07392C3.94477 7.18418 3.18432 6.44772 3.18432 6.4365C3.18432 6.3879 4.33061 5.27387 4.36807 5.28134C4.3943 5.28882 5.44319 6.28323 6.70187 7.49447ZM14.872 13.4796V14.1712H12.6993H10.5266V13.4796V12.788H12.6993H14.872V13.4796Z" fill="#C92071"/>
</svg>
